<mxfile host="app.diagrams.net" modified="2023-05-10T13:19:07.411Z" agent="Mozilla/5.0 (Windows NT 10.0; Win64; x64) AppleWebKit/537.36 (KHTML, like Gecko) Chrome/112.0.0.0 Safari/537.36 Edg/112.0.1722.64" etag="JAbjdyQXrnLoHbrcF-kI" version="21.2.9" type="github">
  <diagram id="R2lEEEUBdFMjLlhIrx00" name="Page-1">
    <mxGraphModel dx="1050" dy="541" grid="1" gridSize="10" guides="1" tooltips="1" connect="1" arrows="1" fold="1" page="1" pageScale="1" pageWidth="850" pageHeight="1100" math="0" shadow="0" extFonts="Permanent Marker^https://fonts.googleapis.com/css?family=Permanent+Marker">
      <root>
        <mxCell id="0" />
        <mxCell id="1" parent="0" />
        <mxCell id="V5jNWRfvBR4DkFaxL2Uw-6" value="Product" style="swimlane;childLayout=stackLayout;horizontal=1;startSize=50;horizontalStack=0;rounded=1;fontSize=14;fontStyle=0;strokeWidth=2;resizeParent=0;resizeLast=1;shadow=0;dashed=0;align=center;arcSize=4;whiteSpace=wrap;html=1;" vertex="1" parent="1">
          <mxGeometry x="60" y="110" width="160" height="230" as="geometry">
            <mxRectangle x="60" y="470" width="90" height="50" as="alternateBounds" />
          </mxGeometry>
        </mxCell>
        <mxCell id="V5jNWRfvBR4DkFaxL2Uw-7" value="&lt;font style=&quot;font-size: 17px;&quot;&gt;* product_id&lt;br&gt;* name&lt;br&gt;* discription&lt;br&gt;* company&lt;br&gt;* price&lt;br&gt;* discount&lt;br&gt;* src&amp;nbsp;&lt;br&gt;&amp;nbsp; alt&lt;br&gt;&lt;/font&gt;" style="align=left;strokeColor=none;fillColor=none;spacingLeft=4;fontSize=12;verticalAlign=top;resizable=0;rotatable=0;part=1;html=1;" vertex="1" parent="V5jNWRfvBR4DkFaxL2Uw-6">
          <mxGeometry y="50" width="160" height="180" as="geometry" />
        </mxCell>
        <mxCell id="V5jNWRfvBR4DkFaxL2Uw-10" value="User" style="swimlane;childLayout=stackLayout;horizontal=1;startSize=50;horizontalStack=0;rounded=1;fontSize=14;fontStyle=0;strokeWidth=2;resizeParent=0;resizeLast=1;shadow=0;dashed=0;align=center;arcSize=4;whiteSpace=wrap;html=1;" vertex="1" parent="1">
          <mxGeometry x="650" y="120" width="160" height="180" as="geometry" />
        </mxCell>
        <mxCell id="V5jNWRfvBR4DkFaxL2Uw-11" value="&lt;font style=&quot;font-size: 17px;&quot;&gt;* user_id&lt;br&gt;* name&lt;br&gt;* email&lt;br&gt;&lt;/font&gt;" style="align=left;strokeColor=none;fillColor=none;spacingLeft=4;fontSize=12;verticalAlign=top;resizable=0;rotatable=0;part=1;html=1;" vertex="1" parent="V5jNWRfvBR4DkFaxL2Uw-10">
          <mxGeometry y="50" width="160" height="130" as="geometry" />
        </mxCell>
        <mxCell id="V5jNWRfvBR4DkFaxL2Uw-12" value="Order" style="swimlane;childLayout=stackLayout;horizontal=1;startSize=50;horizontalStack=0;rounded=1;fontSize=14;fontStyle=0;strokeWidth=2;resizeParent=0;resizeLast=1;shadow=0;dashed=0;align=center;arcSize=4;whiteSpace=wrap;html=1;" vertex="1" parent="1">
          <mxGeometry x="390" y="120" width="160" height="180" as="geometry" />
        </mxCell>
        <mxCell id="V5jNWRfvBR4DkFaxL2Uw-13" value="&lt;font style=&quot;font-size: 17px;&quot;&gt;* order_id&lt;br&gt;* user_id&lt;br&gt;* product&amp;nbsp;&lt;br&gt;&amp;nbsp; order_date&lt;br&gt;&amp;nbsp; total_amount&lt;br&gt;&lt;/font&gt;" style="align=left;strokeColor=none;fillColor=none;spacingLeft=4;fontSize=12;verticalAlign=top;resizable=0;rotatable=0;part=1;html=1;" vertex="1" parent="V5jNWRfvBR4DkFaxL2Uw-12">
          <mxGeometry y="50" width="160" height="130" as="geometry" />
        </mxCell>
        <mxCell id="V5jNWRfvBR4DkFaxL2Uw-17" value="" style="endArrow=none;html=1;rounded=0;exitX=1;exitY=0.5;exitDx=0;exitDy=0;strokeWidth=1;labelPosition=center;verticalLabelPosition=top;align=center;verticalAlign=bottom;entryX=0;entryY=0.5;entryDx=0;entryDy=0;" edge="1" parent="1" source="V5jNWRfvBR4DkFaxL2Uw-13" target="V5jNWRfvBR4DkFaxL2Uw-11">
          <mxGeometry relative="1" as="geometry">
            <mxPoint x="520" y="280" as="sourcePoint" />
            <mxPoint x="610" y="200" as="targetPoint" />
            <Array as="points">
              <mxPoint x="560" y="235" />
              <mxPoint x="610" y="235" />
            </Array>
          </mxGeometry>
        </mxCell>
        <mxCell id="V5jNWRfvBR4DkFaxL2Uw-18" value="N" style="resizable=0;html=1;whiteSpace=wrap;align=right;verticalAlign=bottom;fontSize=16;" connectable="0" vertex="1" parent="V5jNWRfvBR4DkFaxL2Uw-17">
          <mxGeometry x="1" relative="1" as="geometry" />
        </mxCell>
        <mxCell id="V5jNWRfvBR4DkFaxL2Uw-21" value="" style="endArrow=none;html=1;rounded=0;entryX=1;entryY=0.5;entryDx=0;entryDy=0;strokeWidth=2;" edge="1" parent="1" target="V5jNWRfvBR4DkFaxL2Uw-7">
          <mxGeometry relative="1" as="geometry">
            <mxPoint x="390" y="250" as="sourcePoint" />
            <mxPoint x="220" y="220" as="targetPoint" />
          </mxGeometry>
        </mxCell>
        <mxCell id="V5jNWRfvBR4DkFaxL2Uw-22" value="N" style="resizable=0;html=1;whiteSpace=wrap;align=right;verticalAlign=bottom;fontSize=17;" connectable="0" vertex="1" parent="V5jNWRfvBR4DkFaxL2Uw-21">
          <mxGeometry x="1" relative="1" as="geometry" />
        </mxCell>
        <mxCell id="V5jNWRfvBR4DkFaxL2Uw-23" value="" style="endArrow=none;html=1;rounded=0;exitX=1;exitY=0.25;exitDx=0;exitDy=0;entryX=0;entryY=0.25;entryDx=0;entryDy=0;" edge="1" parent="1" source="V5jNWRfvBR4DkFaxL2Uw-7" target="V5jNWRfvBR4DkFaxL2Uw-13">
          <mxGeometry relative="1" as="geometry">
            <mxPoint x="240" y="320" as="sourcePoint" />
            <mxPoint x="390" y="220" as="targetPoint" />
            <Array as="points" />
          </mxGeometry>
        </mxCell>
        <mxCell id="V5jNWRfvBR4DkFaxL2Uw-24" value="1" style="resizable=0;html=1;whiteSpace=wrap;align=right;verticalAlign=bottom;fontSize=17;" connectable="0" vertex="1" parent="V5jNWRfvBR4DkFaxL2Uw-23">
          <mxGeometry x="1" relative="1" as="geometry" />
        </mxCell>
      </root>
    </mxGraphModel>
  </diagram>
</mxfile>
